<svg version="1.1" id="Layer_1" xmlns="http://www.w3.org/2000/svg" xmlns:xlink="http://www.w3.org/1999/xlink" x="0px" y="0px" viewBox="0 0 96 32" style="enable-background:new 0 0 96 32;" xml:space="preserve" class="miles-logo">
<style type="text/css">
    <g>
      <path class="st0" d="M86.2,16.5c0-1.1,1.3-1.6,2.8-1.6c1.4,0,2.8,0.5,3.9,1.4l2.6-4c-1.3-1-4.2-2-6.9-2c-4,0-7.8,2.4-7.8,6.3
      c0,6.5,9.8,5.4,9.8,8.5c0,1-1.1,1.7-2.6,1.7c-2,0-4-0.7-5.6-2l-2.6,3.9c2.4,1.8,5.2,2.7,8.2,2.8c4.3,0,8.1-2.4,8.1-6.3
      C96,18.1,86.2,19.2,86.2,16.5z"></path>
      <path class="st0" d="M14.7,10.8C14.7,10.8,14.7,10.8,14.7,10.8c-5,0-9.1-4.1-9-9.1c0,0,0,0,0,0H0V31h5.7V12.7
      c0.1,0.2,0.3,0.4,0.5,0.5c2.4,1.9,5.5,2.9,8.5,2.9c3.1,0,6.1-1,8.5-2.9c0.2-0.1,0.3-0.3,0.5-0.5V31h5.7V1.7h-5.7
      C23.7,6.7,19.7,10.8,14.7,10.8z"></path>
      <path class="st0" d="M38.5,0C38.5,0,38.4,0,38.5,0c-2,0-3.5,1.5-3.6,3.5c0,1.9,1.5,3.4,3.4,3.5c1.9,0,3.5-1.5,3.6-3.4
      C41.9,1.6,40.4,0,38.5,0z"></path>
      <rect x="35.8" y="10.7" class="st0" width="5.4" height="20.3"></rect>
      <path class="st0" d="M67.4,10.2c-6,0-9.9,4.9-9.9,10.6c0,6.4,4.6,10.5,10.6,10.5c3.1,0,6.4-1.3,8.3-3.6l-3.1-3.1
      c-1.3,1.4-3.1,2.3-5.1,2.3c-2.8,0.1-5.2-2-5.5-4.8h14c0.1-0.5,0.1-1,0.1-1.5C77,15,73,10.2,67.4,10.2z M63,18.2
      c0.4-2.1,2.2-3.6,4.4-3.6c2,0,3.8,1.5,4,3.6H63z"></path>
      <rect x="47.5" y="1.3" class="st0" width="5.4" height="29.7"></rect>
    </g>
  </style>
</svg>